<?xml version="1.0" encoding="UTF-8"?>
<!DOCTYPE svg PUBLIC "-//W3C//DTD SVG 1.1//EN" "http://www.w3.org/Graphics/SVG/1.1/DTD/svg11.dtd">
<svg version="1.1" xmlns="http://www.w3.org/2000/svg" xmlns:xlink="http://www.w3.org/1999/xlink" x="0" y="0" width="256.586" height="152.625" viewBox="0, 0, 342.115, 203.5">
  <g id="Layer_1">
    <g>
      <path d="M79.5,145.435 C55.199,145.435 35.5,125.96 35.5,101.935 C35.5,77.911 55.199,58.435 79.5,58.435 C103.801,58.435 123.5,77.911 123.5,101.935 C123.5,125.96 103.801,145.435 79.5,145.435 z" fill="#FFFFFF"/>
      <path d="M79.5,145.435 C55.199,145.435 35.5,125.96 35.5,101.935 C35.5,77.911 55.199,58.435 79.5,58.435 C103.801,58.435 123.5,77.911 123.5,101.935 C123.5,125.96 103.801,145.435 79.5,145.435 z" fill-opacity="0" stroke="#000000" stroke-width="2"/>
    </g>
    <g>
      <path d="M293.615,145.435 C269.315,145.435 249.615,125.96 249.615,101.935 C249.615,77.911 269.315,58.435 293.615,58.435 C317.916,58.435 337.615,77.911 337.615,101.935 C337.615,125.96 317.916,145.435 293.615,145.435 z" fill="#FFFFFF"/>
      <path d="M293.615,145.435 C269.315,145.435 249.615,125.96 249.615,101.935 C249.615,77.911 269.315,58.435 293.615,58.435 C317.916,58.435 337.615,77.911 337.615,101.935 C337.615,125.96 317.916,145.435 293.615,145.435 z" fill-opacity="0" stroke="#000000" stroke-width="2"/>
    </g>
    <path d="M293.721,66.566 L304.115,72.862 L283.115,84.329 L304.115,96.044 L283.115,108.306 L304.115,120.224 L283.115,132.438 L293.721,137.305" fill-opacity="0" stroke="#000000" stroke-width="2"/>
    <path d="M79.5,5.5 L79.5,199" fill-opacity="0" stroke="#000000" stroke-width="2"/>
    <path d="M293.721,66.566 L293.721,5.5" fill-opacity="0" stroke="#000000" stroke-width="2"/>
    <path d="M293.721,137.305 L293.721,199" fill-opacity="0" stroke="#000000" stroke-width="2"/>
    <g>
      <path d="M67.412,66.566 L89.667,66.566 L89.667,137.305 L67.412,137.305 L67.412,66.566 z" fill="#FFFFFF"/>
      <path d="M67.412,66.566 L89.667,66.566 L89.667,137.305 L67.412,137.305 L67.412,66.566 z" fill-opacity="0" stroke="#000000" stroke-width="2"/>
    </g>
    <g>
      <g>
        <path d="M22,30.5 L41.686,53.914" fill-opacity="0" stroke="#000000" stroke-width="2"/>
        <path d="M38.931,56.231 L47.864,61.262 L44.442,51.598 z" fill="#000000" fill-opacity="1" stroke="#000000" stroke-width="2" stroke-opacity="1"/>
      </g>
      <g>
        <path d="M11.5,40 L32.027,63.551" fill-opacity="0" stroke="#000000" stroke-width="2"/>
        <path d="M29.313,65.916 L38.335,70.788 L34.741,61.186 z" fill="#000000" fill-opacity="1" stroke="#000000" stroke-width="2" stroke-opacity="1"/>
      </g>
    </g>
    <g>
      <g>
        <path d="M236,30.5 L255.686,53.914" fill-opacity="0" stroke="#000000" stroke-width="2"/>
        <path d="M252.931,56.231 L261.864,61.262 L258.442,51.598 z" fill="#000000" fill-opacity="1" stroke="#000000" stroke-width="2" stroke-opacity="1"/>
      </g>
      <g>
        <path d="M225.5,40 L246.027,63.551" fill-opacity="0" stroke="#000000" stroke-width="2"/>
        <path d="M243.313,65.916 L252.335,70.788 L248.741,61.186 z" fill="#000000" fill-opacity="1" stroke="#000000" stroke-width="2" stroke-opacity="1"/>
      </g>
    </g>
  </g>
</svg>
